<?xml version="1.0" encoding="iso-8859-1"?>
<!-- Generator: Adobe Illustrator 19.0.0, SVG Export Plug-In . SVG Version: 6.00 Build 0)  -->
<svg version="1.1" id="Layer_1" xmlns="http://www.w3.org/2000/svg" xmlns:xlink="http://www.w3.org/1999/xlink" x="0px" y="0px"
	 viewBox="0 0 488.8 488.8" style="enable-background:new 0 0 488.8 488.8;" xml:space="preserve">
<path style="fill:#A2C0CC;" d="M488,453.2c0,13.6-10.4,24-24,24H24c-13.6,0-24-11.2-24-24V35.6c0-13.6,10.4-24,24-24h440
	c13.6,0,24,11.2,24,24V453.2z"/>
<path style="fill:#ABCCD3;" d="M366.4,391.6V10.8h-332c-13.6,0-24,11.2-24,24v356.8L366.4,391.6L366.4,391.6z"/>
<path style="fill:#91B2BC;" d="M356,391.6V10.8H24c-13.6,0-24,11.2-24,24v356.8L356,391.6L356,391.6z"/>
<path style="fill:#61787F;" d="M0,300.4V454c0,13.6,10.4,24,24,24h440c13.6,0,24-11.2,24-24V300.4H0z"/>
<g>
	<polygon style="fill:#486066;" points="205.6,395.6 110.4,463.6 124,478 327.2,478 252.8,403.6 	"/>
	<rect y="300.4" style="fill:#486066;" width="488" height="41.6"/>
</g>
<path style="fill:#319176;" d="M315.2,224.4c0,12.8-10.4,23.2-23.2,23.2H63.2c-12.8,0-23.2-10.4-23.2-23.2V86.8
	C40,74,50.4,63.6,63.2,63.6H292c12.8,0,23.2,10.4,23.2,23.2V224.4z"/>
<path style="fill:#3CA589;" d="M315.2,234.8c0,12.8-10.4,23.2-23.2,23.2H63.2C50.4,258,40,247.6,40,234.8V97.2
	C40,84.4,50.4,74,63.2,74H292c12.8,0,23.2,10.4,23.2,23.2V234.8z"/>
<path style="fill:#319385;" d="M292,74.8c12.8,0,23.2,10.4,23.2,23.2v137.6c0,12.8-10.4,23.2-23.2,23.2H63.2
	c-12.8,0-23.2-10.4-23.2-23.2"/>
<path style="fill:#84A6AD;" d="M458.4,114c0,5.6-4,16.8-9.6,16.8H412c-5.6,0-9.6-11.2-9.6-16.8l0,0c0-5.6,4-9.6,9.6-9.6h37.6
	C454.4,104.4,458.4,108.4,458.4,114L458.4,114z"/>
<path style="fill:#306687;" d="M458.4,114c0,5.6-4,9.6-9.6,9.6H412c-5.6,0-9.6-4-9.6-9.6l0,0c0-5.6,4-9.6,9.6-9.6h37.6
	C454.4,104.4,458.4,108.4,458.4,114L458.4,114z"/>
<path style="fill:#27A7C4;" d="M449.6,102.8H412c-4,0-8,4-8.8,8c0.8,4,4.8,7.2,8.8,7.2h37.6c4,0,8-3.2,8.8-7.2
	C456.8,106.8,453.6,102.8,449.6,102.8z"/>
<path style="fill:#2D8CA5;" d="M449.6,104.4H412c-4,0-8,3.2-8.8,7.2c0.8,4,4.8,7.2,8.8,7.2h37.6c4,0,8-3.2,8.8-7.2
	C456.8,106.8,453.6,104.4,449.6,104.4z"/>
<path style="fill:#227B93;" d="M412,118h37.6c4,0,8-3.2,8.8-7.2c-0.8-4-4.8-7.2-8.8-7.2"/>
<path style="fill:#84A6AD;" d="M458.4,153.2c0,5.6-4,16.8-9.6,16.8H412c-5.6,0-9.6-11.2-9.6-16.8l0,0c0-5.6,4-9.6,9.6-9.6h37.6
	C454.4,143.6,458.4,147.6,458.4,153.2L458.4,153.2z"/>
<path style="fill:#306687;" d="M458.4,153.2c0,5.6-4,9.6-9.6,9.6H412c-5.6,0-9.6-4-9.6-9.6l0,0c0-5.6,4-9.6,9.6-9.6h37.6
	C454.4,143.6,458.4,147.6,458.4,153.2L458.4,153.2z"/>
<path style="fill:#27A7C4;" d="M449.6,142H412c-4,0-8,4-8.8,8c0.8,4,4.8,7.2,8.8,7.2h37.6c4,0,8-3.2,8.8-7.2
	C456.8,146,453.6,142,449.6,142z"/>
<path style="fill:#2D8CA5;" d="M449.6,143.6H412c-4,0-8,3.2-8.8,7.2c0.8,4,4.8,7.2,8.8,7.2h37.6c4,0,8-3.2,8.8-7.2
	C456.8,146,453.6,143.6,449.6,143.6z"/>
<path style="fill:#227B93;" d="M412,157.2h37.6c4,0,8-3.2,8.8-7.2c-0.8-4-4.8-7.2-8.8-7.2"/>
<path style="fill:#84A6AD;" d="M458.4,191.6c0,5.6-4,16.8-9.6,16.8H412c-5.6,0-9.6-11.2-9.6-16.8l0,0c0-5.6,4-9.6,9.6-9.6h37.6
	C454.4,182.8,458.4,186.8,458.4,191.6L458.4,191.6z"/>
<path style="fill:#306687;" d="M458.4,191.6c0,5.6-4,9.6-9.6,9.6H412c-5.6,0-9.6-4-9.6-9.6l0,0c0-5.6,4-9.6,9.6-9.6h37.6
	C454.4,182.8,458.4,186.8,458.4,191.6L458.4,191.6z"/>
<path style="fill:#27A7C4;" d="M449.6,181.2H412c-4,0-8,4-8.8,8c0.8,4,4.8,7.2,8.8,7.2h37.6c4,0,8-3.2,8.8-7.2
	C456.8,185.2,453.6,181.2,449.6,181.2z"/>
<path style="fill:#2D8CA5;" d="M449.6,182.8H412c-4,0-8,3.2-8.8,7.2c0.8,3.2,4.8,6.4,8.8,6.4h37.6c4,0,8-3.2,8.8-7.2
	C456.8,185.2,453.6,182.8,449.6,182.8z"/>
<path style="fill:#227B93;" d="M412,196.4h37.6c4,0,8-3.2,8.8-7.2c-0.8-4-4.8-7.2-8.8-7.2"/>
<path style="fill:#84A6AD;" d="M458.4,229.2c0,5.6-4,16.8-9.6,16.8H412c-5.6,0-9.6-11.2-9.6-16.8l0,0c0-5.6,4-9.6,9.6-9.6h37.6
	C454.4,219.6,458.4,223.6,458.4,229.2L458.4,229.2z"/>
<path style="fill:#990000;" d="M458.4,229.2c0,5.6-4,9.6-9.6,9.6H412c-5.6,0-9.6-4-9.6-9.6l0,0c0-5.6,4-9.6,9.6-9.6h37.6
	C454.4,219.6,458.4,223.6,458.4,229.2L458.4,229.2z"/>
<path style="fill:#F73131;" d="M449.6,218H412c-4,0-8,4-8.8,8c0.8,4,4.8,7.2,8.8,7.2h37.6c4,0,8-3.2,8.8-7.2
	C456.8,222,453.6,218,449.6,218z"/>
<path style="fill:#D10D0D;" d="M449.6,219.6H412c-4,0-8,3.2-8.8,7.2c0.8,4,4.8,7.2,8.8,7.2h37.6c4,0,8-3.2,8.8-7.2
	C456.8,222,453.6,219.6,449.6,219.6z"/>
<path style="fill:#B70404;" d="M412,233.2h37.6c4,0,8-3.2,8.8-7.2c-0.8-4-4.8-7.2-8.8-7.2"/>
<path style="fill:#84A6AD;" d="M458.4,74.8c0,5.6-4,16.8-9.6,16.8H412c-5.6,0-9.6-11.2-9.6-16.8l0,0c0-5.6,4-9.6,9.6-9.6h37.6
	C454.4,65.2,458.4,69.2,458.4,74.8L458.4,74.8z"/>
<path style="fill:#599316;" d="M458.4,74.8c0,5.6-4,9.6-9.6,9.6H412c-5.6,0-9.6-4-9.6-9.6l0,0c0-5.6,4-9.6,9.6-9.6h37.6
	C454.4,65.2,458.4,69.2,458.4,74.8L458.4,74.8z"/>
<path style="fill:#8FDD3C;" d="M449.6,63.6H412c-4,0-8,4-8.8,8c0.8,4,4.8,7.2,8.8,7.2h37.6c4,0,8-3.2,8.8-7.2
	C456.8,68.4,453.6,63.6,449.6,63.6z"/>
<path style="fill:#79C430;" d="M449.6,65.2H412c-4,0-8,3.2-8.8,7.2c0.8,4,4.8,7.2,8.8,7.2h37.6c4,0,8-3.2,8.8-7.2
	C456.8,68.4,453.6,65.2,449.6,65.2z"/>
<path style="fill:#67AD1E;" d="M412,78.8h37.6c4,0,8-3.2,8.8-7.2c-0.8-4-4.8-7.2-8.8-7.2"/>
<path style="fill:#89A6AD;" d="M312,405.2c0,4-3.2,7.2-7.2,7.2H50.4c-4,0-7.2-3.2-7.2-7.2v-9.6c0-4,3.2-7.2,7.2-7.2h254.4
	c4,0,7.2,3.2,7.2,7.2V405.2z"/>
<path style="fill:#486066;" d="M312,402c0,4-3.2,7.2-7.2,7.2H50.4c-4,0-7.2-3.2-7.2-7.2v-9.6c0-4,3.2-7.2,7.2-7.2h254.4
	c4,0,7.2,3.2,7.2,7.2V402z"/>
<path style="fill:#394D51;" d="M50.4,385.2c-3.2,0-6.4,3.2-6.4,6.4c0,4,3.2,7.2,7.2,7.2h254.4c4,0,7.2-3.2,7.2-7.2s-3.2-7.2-7.2-7.2
	H50.4V385.2z"/>
<path style="fill:#486066;" d="M474.4,421.2c0,12.8-10.4,23.2-23.2,23.2h-41.6c-12.8,0-23.2-10.4-23.2-23.2v-41.6
	c0-12.8,10.4-23.2,23.2-23.2h41.6c12.8,0,23.2,10.4,23.2,23.2V421.2z"/>
<path style="fill:#91B2BC;" d="M474.4,406.8c0,12.8-10.4,23.2-23.2,23.2h-41.6c-12.8,0-23.2-10.4-23.2-23.2v-41.6
	c0-12.8,10.4-23.2,23.2-23.2h41.6c12.8,0,23.2,10.4,23.2,23.2V406.8z"/>
<path style="fill:#7EA2AA;" d="M386.4,365.2c0-12.8,10.4-23.2,23.2-23.2h41.6c12.8,0,23.2,10.4,23.2,23.2v41.6
	c0,12.8-10.4,23.2-23.2,23.2"/>
<path style="fill:#93BAC1;" d="M386.4,365.2c0-12.8,10.4-23.2,23.2-23.2h41.6c12.8,0,23.2,10.4,23.2,23.2"/>
<path style="fill:#A7CFD8;" d="M460,393.2c0,1.6-1.6,3.2-3.2,3.2H404c-1.6,0-3.2-1.6-3.2-3.2v-10.4c0-1.6,1.6-3.2,3.2-3.2h52.8
	c1.6,0,3.2,1.6,3.2,3.2V393.2z"/>
<path style="fill:#486066;" d="M460,390.8c0,1.6-1.6,3.2-3.2,3.2H404c-1.6,0-3.2-1.6-3.2-3.2v-10.4c0-1.6,1.6-3.2,3.2-3.2h52.8
	c1.6,0,3.2,1.6,3.2,3.2V390.8z"/>
<path style="fill:#394D51;" d="M456.8,378H404c-1.6,0-3.2,1.6-3.2,3.2v4c0,1.6,1.6,3.2,3.2,3.2h52.8c1.6,0,3.2-1.6,3.2-3.2v-4
	C460,379.6,458.4,378,456.8,378z"/>
<rect x="109.6" y="385.2" style="fill:#95C19D;" width="136" height="79.2"/>
<polyline style="fill:#83B28C;" points="109.6,385.2 245.6,385.2 245.6,463.6 "/>
<rect x="109.6" y="385.2" style="fill:#719E78;" width="136" height="18.4"/>
<rect x="125.6" y="385.2" style="fill:#578461;" width="105.6" height="64.8"/>
<polyline style="fill:#43754F;" points="125.6,385.2 230.4,385.2 230.4,450 "/>
<path style="fill:#A2C0CC;" d="M488,329.2v-52c-1.6,0-3.2-0.8-4.8-0.8H378.4c-12.8,0-23.2,10.4-23.2,23.2v7.2
	c0,12.8,10.4,23.2,23.2,23.2h104.8C484.8,329.2,486.4,329.2,488,329.2z"/>
<path style="fill:#ABCCD3;" d="M389.6,310c-12.8,0-23.2-10.4-23.2-23.2v-6.4c-6.4,4-10.4,11.2-10.4,19.2v7.2
	c0,12.8,10.4,23.2,23.2,23.2H484c1.6,0,3.2,0,4.8-0.8V310L389.6,310L389.6,310z"/>
<rect x="125.6" y="385.2" style="fill:#35633F;" width="105.6" height="18.4"/>
<path style="fill:#CBE8EF;" d="M479.2,308.4c0,2.4-1.6,4-4,4h-88.8c-2.4,0-4-1.6-4-4l0,0c0-2.4,1.6-4,4-4h88.8
	C477.6,304.4,479.2,306.8,479.2,308.4L479.2,308.4z"/>
<path style="fill:#486066;" d="M479.2,306.8c0,2.4-1.6,4-4,4h-88.8c-2.4,0-4-1.6-4-4l0,0c0-2.4,1.6-4,4-4h88.8
	C477.6,302.8,479.2,304.4,479.2,306.8L479.2,306.8z"/>
<path style="fill:#7DE7FF;" d="M396,306.8v20c0,3.2,3.2,6.4,6.4,6.4h56c3.2,0,6.4-3.2,6.4-6.4v-20H396z"/>
<path style="fill:#24D1FF;" d="M396,302.8v20c0,3.2,3.2,6.4,6.4,6.4h56c3.2,0,6.4-3.2,6.4-6.4v-20H396z"/>
<path style="fill:#17C3FF;" d="M458.4,328.4c3.2,0,6.4-3.2,6.4-6.4v-20H396"/>
<rect x="396" y="302.8" style="fill:#27B2FF;" width="68.8" height="8.8"/>
<g>
	<circle style="fill:#319385;" cx="72" cy="108.4" r="6.4"/>
	<circle style="fill:#319385;" cx="72" cy="142.8" r="6.4"/>
	<circle style="fill:#319385;" cx="72" cy="178" r="6.4"/>
	<circle style="fill:#319385;" cx="72" cy="212.4" r="6.4"/>
</g>
<g>
</g>
<g>
</g>
<g>
</g>
<g>
</g>
<g>
</g>
<g>
</g>
<g>
</g>
<g>
</g>
<g>
</g>
<g>
</g>
<g>
</g>
<g>
</g>
<g>
</g>
<g>
</g>
<g>
</g>
</svg>
