<?xml version="1.0" encoding="iso-8859-1"?>
<!-- Generator: Adobe Illustrator 19.0.0, SVG Export Plug-In . SVG Version: 6.00 Build 0)  -->
<svg version="1.1" id="Layer_1" xmlns="http://www.w3.org/2000/svg" xmlns:xlink="http://www.w3.org/1999/xlink" x="0px" y="0px"
	 viewBox="0 0 505 505" style="enable-background:new 0 0 505 505;" xml:space="preserve">
<circle style="fill:#FD8469;" cx="252.5" cy="252.5" r="252.5"/>
<path style="fill:#FFD05B;" d="M410.5,114.6h-316c-2.2,0-4,1.8-4,4v74.7c0,2.2,1.8,4,4,4h316c2.2,0,4-1.8,4-4v-74.7
	C414.5,116.4,412.7,114.6,410.5,114.6z"/>
<rect x="108.8" y="135" style="fill:#324A5E;" width="287.5" height="42"/>
<polygon style="fill:#EDF2F2;" points="161.4,389.9 162.5,389.9 174.9,377.5 187.3,389.9 188.4,389.9 200.7,377.5 213.1,389.9 
	214.2,389.9 226.6,377.5 239,389.9 240.1,389.9 252.5,377.5 264.9,389.9 266,389.9 278.4,377.5 290.8,389.9 291.9,389.9 
	304.3,377.5 316.6,389.9 317.7,389.9 330.1,377.5 342.5,389.9 343.6,389.9 356,377.5 365.3,386.7 365.3,156 139.7,156 139.7,386.7 
	149,377.5 "/>
<g>
	<rect x="177.1" y="213.4" style="fill:#4CDBC4;" width="150.9" height="14"/>
	<rect x="177.1" y="257" style="fill:#4CDBC4;" width="150.9" height="14"/>
	<rect x="177.1" y="300.5" style="fill:#4CDBC4;" width="90.6" height="14"/>
</g>
<g>
</g>
<g>
</g>
<g>
</g>
<g>
</g>
<g>
</g>
<g>
</g>
<g>
</g>
<g>
</g>
<g>
</g>
<g>
</g>
<g>
</g>
<g>
</g>
<g>
</g>
<g>
</g>
<g>
</g>
</svg>
