<?xml version="1.0" encoding="iso-8859-1"?>
<!-- Generator: Adobe Illustrator 19.0.0, SVG Export Plug-In . SVG Version: 6.00 Build 0)  -->
<svg version="1.1" id="Layer_1" xmlns="http://www.w3.org/2000/svg" xmlns:xlink="http://www.w3.org/1999/xlink" x="0px" y="0px"
	 viewBox="0 0 491.52 491.52" style="enable-background:new 0 0 491.52 491.52;" xml:space="preserve">
<g>
	<g>
		<path d="M453.571,286.706H307.548c1.659-43.991,12.534-91.525,34.099-148.48c4.321-11.448,6.513-23.491,6.513-35.84
			c0-31.416-14.111-60.662-38.769-80.22C284.774,2.587,252.744-4.458,221.45,2.813c-36.618,8.499-66.048,37.622-74.998,74.158
			c-5.857,23.982-3.441,48.046,7.045,69.612c18.76,38.646,28.365,84.972,30.106,140.124H37.949C17.019,286.706,0,303.725,0,324.656
			v46.981c0,20.931,17.019,37.949,37.949,37.949h3.011v38.175c0,24.125,19.62,43.745,43.745,43.745h322.109
			c24.125,0,43.745-19.62,43.745-43.745v-38.175h3.01c20.931,0,37.949-17.019,37.949-37.949v-46.981
			C491.52,303.725,474.501,286.706,453.571,286.706z M450.56,368.626H40.96v-40.96h143.36H307.2h143.36V368.626z"/>
	</g>
</g>
<g>
</g>
<g>
</g>
<g>
</g>
<g>
</g>
<g>
</g>
<g>
</g>
<g>
</g>
<g>
</g>
<g>
</g>
<g>
</g>
<g>
</g>
<g>
</g>
<g>
</g>
<g>
</g>
<g>
</g>
</svg>
