<?xml version="1.0" standalone="no"?>
<!DOCTYPE svg PUBLIC "-//W3C//DTD SVG 20010904//EN"
 "http://www.w3.org/TR/2001/REC-SVG-20010904/DTD/svg10.dtd">
<svg version="1.0" xmlns="http://www.w3.org/2000/svg"
 width="3264.000000pt" height="3264.000000pt" viewBox="0 0 3264.000000 3264.000000"
 preserveAspectRatio="xMidYMid meet">

<g transform="translate(0.000000,3264.000000) scale(0.100000,-0.100000)"
fill="#EEEEEE" stroke="none">
<path d="M11110 29803 c-998 -53 -1773 -305 -2451 -794 -545 -394 -1003 -928
-1427 -1664 -119 -207 -360 -688 -457 -915 -608 -1411 -1087 -3167 -1739
-6375 -154 -755 -482 -2436 -566 -2895 -24 -128 -103 -471 -185 -800 -1279
-5133 -1818 -8722 -1655 -11030 96 -1359 439 -2272 1045 -2778 247 -207 560
-351 910 -421 226 -45 365 -55 678 -48 208 4 317 12 462 31 903 120 1851 421
3840 1221 624 251 1354 539 1675 662 1492 568 2606 882 3610 1017 350 47 539
60 925 60 l360 0 430 -57 c1260 -168 2888 -342 4090 -437 1663 -133 3001 -188
4255 -177 1574 15 2721 115 3770 328 366 75 808 193 1100 294 1142 397 1845
988 2103 1767 181 545 138 1217 -123 1958 -163 464 -450 1043 -771 1557 -214
343 -543 819 -699 1013 -210 261 -620 839 -897 1265 -1144 1763 -1789 3397
-1987 5035 -45 372 -66 744 -66 1180 0 541 24 895 125 1857 69 648 86 865 92
1158 10 482 -28 835 -127 1189 -91 325 -283 688 -522 987 -178 225 -474 505
-760 720 -1164 876 -3154 1714 -6268 2639 -342 102 -386 118 -695 250 -3337
1431 -5631 2112 -7415 2199 -196 10 -519 12 -660 4z"/>
</g>
</svg>
