<?xml version="1.0" encoding="utf-8"?>

<svg version="1.1" id="Icons" xmlns="http://www.w3.org/2000/svg" xmlns:xlink="http://www.w3.org/1999/xlink" x="0px" y="0px"
	 viewBox="0 0 32 32" style="enable-background:new 0 0 32 32;" xml:space="preserve">
<g>
	<path d="M16,19c2.2,0,4-1.3,4-3s-1.8-3-4-3s-4,1.3-4,3S13.8,19,16,19z"/>
	<path d="M26.5,4h-21C3.6,4,2,5.6,2,7.5S3.6,11,5.5,11H9v16c0,0.6,0.4,1,1,1h12c0.6,0,1-0.4,1-1V11h3.5c1.9,0,3.5-1.6,3.5-3.5
		S28.4,4,26.5,4z M21,22.1c-2,0.4-3.5,1.9-3.9,3.9h-2.2c-0.4-2-1.9-3.5-3.9-3.9V6h10V22.1z"/>
</g>
</svg>
